# xmcd CD database file
#
# Track frame offsets:
#	150
#	29162
#	66545
#	116790
#	149155
#	160180
#	212482
#	236107
#
# Disc length: 3547 seconds
#
# Revision: 0
# Processed by: cddbd v1.5.2PL0 Copyright (c) Steve Scherf et al.
# Submitted via: CDex 1.70beta2
#
DISCID=830dd908
DTITLE=Claudio Pontiggia - Espoir
DYEAR=1998
DGENRE=Jazz
TTITLE0=Latin Sketch
TTITLE1=Espoir
TTITLE2=Chet
TTITLE3=Swiss Time
TTITLE4=La Soupe aux Cafards
TTITLE5=Mitologia
TTITLE6=Porlezza
TTITLE7=Sirene
EXTD=YEAR: 1998
EXTT0=
EXTT1=
EXTT2=
EXTT3=
EXTT4=
EXTT5=
EXTT6=
EXTT7=
PLAYORDER=
